<svg id="Слой_1" data-name="Слой 1" xmlns="http://www.w3.org/2000/svg" viewBox="0 0 531.2 277.63"><defs><style>.cls-1{fill:#21223a;}.cls-2{fill:none;}.cls-3{fill:#f24c2a;}</style></defs><title>Монтажная область 8</title><path d="M528.89,184.84c-4.28-16.21-13.36-28.05-27-35.22-10-5.25-21-7.3-33.74-6.28-12.57,1-23.39,5.24-32,12.42a46,46,0,0,0,4.17-16.4,40.88,40.88,0,0,0-32.15-43.19c-19.65-4.29-38.33,1.12-52.6,15.23-12.4,12.26-17.82,27-20.81,37,0,.08-.05.17-.08.25a30,30,0,0,0-7-2.42,69.89,69.89,0,0,0-7.61-1.15c-1.21-.14-2.4-.25-3.56-.34-.15-1.38-.36-2.73-.62-4.06-2.16-11.12-8.44-19.92-17.68-24.78a35,35,0,0,0-14.63-4l7.61-82.67.06-.83A26.94,26.94,0,0,0,265.81.05a38.16,38.16,0,0,0-10.27.88l-5.66,1.72-.66.23A45.55,45.55,0,0,0,228.4,19.56c-44.2,7.05-100.11,13.28-100.77,13.35l-.3,0C71.63,40.13,28.74,70.87,9.66,117.26-6.59,156.78-2.07,201.6,21.19,231.44c34.28,44,77.83,46.19,86.21,46.19h.93c19.28-.08,37.33-6.74,53.66-19.83l.18-.15a58.69,58.69,0,0,0,9.65-9.94c7.07,10.41,18.6,16.69,32.12,17a44.45,44.45,0,0,0,22.62-5.5,36.54,36.54,0,0,0,3.93,2.32c13.24,6.78,27.71,6.41,40.75-1a51.8,51.8,0,0,0,9.25-6.74,39.41,39.41,0,0,0,22.76,15,58.54,58.54,0,0,0,13.37,1.59,55.44,55.44,0,0,0,32.91-11c.9-.67,1.79-1.36,2.65-2.09a51.59,51.59,0,0,0,27.93,13c17.95,2.63,34.62-1.87,47.28-12.72a70.43,70.43,0,0,0,6.81-6.67,52.31,52.31,0,0,0,14.61,8.89,62.93,62.93,0,0,0,23.84,4.6h0a69.22,69.22,0,0,0,7.84-.45c15.12-1.7,27.53-8.35,36.88-19.78,9.18-11.23,13.83-24.83,13.82-40.43A71,71,0,0,0,528.89,184.84Z"/><path class="cls-1" d="M252.53,11.25A36.3,36.3,0,0,0,234,27.78c-44.75,7.31-104.63,14-105.27,14.07l-.22,0C76.08,48.63,35.8,77.36,18,120.69c-15,36.58-11,77.88,10.31,105.22,31.76,40.73,71.64,42.72,79.11,42.72h.82c17.22-.05,33.41-6.05,48.13-17.85l.2-.16c7.11-5.69,13.07-14.58,17-23.12a54.07,54.07,0,0,0,1.58,6.47c4.16,13.3,15,21.42,29,21.75A35.33,35.33,0,0,0,227.19,248a27.1,27.1,0,0,0,7.4,5.52,32.86,32.86,0,0,0,32.19-.85,48.71,48.71,0,0,0,15.71-14.95c3.3,11.34,11.68,19.66,22.83,22.29a49.11,49.11,0,0,0,11.3,1.35,46,46,0,0,0,27.58-9.28,46.8,46.8,0,0,0,8.27-7.85,42.88,42.88,0,0,0,28.95,17.09,60.49,60.49,0,0,0,8.7.65,47.18,47.18,0,0,0,31.41-11.31,59,59,0,0,0,12-13.87,42.31,42.31,0,0,0,18.71,14.59,53.85,53.85,0,0,0,20.46,3.94,61.12,61.12,0,0,0,6.84-.39c12.7-1.43,23.1-7,30.91-16.53s11.81-21.3,11.79-34.78a61.83,61.83,0,0,0-2-16.48c-3.61-13.67-11.17-23.61-22.47-29.55h0c-8.42-4.44-17.85-6.16-28.83-5.28-16.68,1.34-29.49,9.22-37.38,22.85A41.53,41.53,0,0,0,418.3,164.5a36.5,36.5,0,0,0,13-25.77A31.94,31.94,0,0,0,406.25,105c-16.81-3.67-32.14.77-44.35,12.84C351,128.61,346.09,141.9,343.38,151a130.44,130.44,0,0,0-3.53,15A19.68,19.68,0,0,0,325.79,155a63.45,63.45,0,0,0-6.68-1c-3.85-.42-7.61-.6-11.29-.71a47.37,47.37,0,0,0-.74-10.91c-2.1-10.75-8.25-16-13-18.53A26.1,26.1,0,0,0,274,122.08c-.63.2-1.24.42-1.84.66a25.55,25.55,0,0,0,2.26-9l7.86-85.36,0-.48A17.92,17.92,0,0,0,265.33,9h0a28.74,28.74,0,0,0-7.84.68Z"/><path class="cls-2" d="M397.06,146.92a21.42,21.42,0,0,0,4.8-15.38c-.44-5.76-5.41-8.91-10.8-6.79-4.47,1.75-7.47,5.17-10,9.06-5.11,7.95-6.88,17-8.74,26.43C382.25,158.39,390.82,154.77,397.06,146.92Z"/><path class="cls-2" d="M404.55,192.17c-2.15-4.57-5.39-8-10.6-8.86-7.49-1.28-13.68,1.94-17.44,8.94-3.26,6.09-4.42,12.66-4.35,20.36a40.59,40.59,0,0,0,1.59,12c1.4,5.07,3.42,9.85,7.45,13.49a12.29,12.29,0,0,0,16.5.63,21.06,21.06,0,0,0,6.18-8.2c3.67-8.06,4.33-16.58,3.74-25.28A35.85,35.85,0,0,0,404.55,192.17Z"/><path class="cls-2" d="M482,175.36a10.21,10.21,0,0,0-16-.82,20.42,20.42,0,0,0-4.24,7.61c-2.41,7.2-2.94,14.67-3,22.19A63,63,0,0,0,461,223.28c1.09,3.56,2.57,6.93,5.43,9.48,4.86,4.35,11.34,3.58,15-1.77a25.2,25.2,0,0,0,3.43-7.65c3.24-11.62,3.2-23.39,1.59-35.21C485.86,183.58,484.75,179.14,482,175.36Z"/><path class="cls-2" d="M281.47,141.89c-1.62,0-2.48,1.24-3,2.58a18.11,18.11,0,0,0-.47,13,9.44,9.44,0,0,0,5.22,5.41c1.09.53,1.26.16,1.38-.82.4-3.25.72-6.51.8-9.79.05-2.64.12-5.28-1-7.78C283.84,143.19,283.13,141.87,281.47,141.89Z"/><path class="cls-3" d="M348.44,220.47c-1.63-.89-3-.41-4.46,1.46-1.65,2.14-3.28,4.29-5.05,6.32-3.06,3.53-6.51,6.58-11.09,8.06-6.52,2.12-11.34-.8-12.42-7.53a16.48,16.48,0,0,1,0-4.21,56.28,56.28,0,0,1,3.05-13.14c2.72-7.72,5.65-15.36,8.39-23.08,1.55-4.37,2.73-8.83,2.5-13.55-.21-4.12-2.24-6.73-6.23-7.6a51.06,51.06,0,0,0-5.39-.78c-6.54-.72-13.11-.66-19.68-.9-4.06-.15-3.9-.15-3.48-4.12.58-5.53,1.31-11.08.23-16.64-.82-4.2-2.64-7.78-6.59-9.86a14.06,14.06,0,0,0-18.75,5.91c-3.1,5.94-3.12,12.19-1.06,18.42s6.7,10.19,12.59,12.67c1.6.68,1.83,1.34,1.5,2.95A210,210,0,0,1,275,202.78c-2.85,8.13-6.06,16.12-11.12,23.2-1.95,2.73-4.15,5.25-7.25,6.76-3.94,1.93-6.53.67-7.62-3.57a33,33,0,0,1-.51-11.54c.84-8.34,2-16.64,2.84-25,.54-5.18.88-10.39-.14-15.59a13.49,13.49,0,0,0-15.81-10.76c-2.49.49-3.93,1.91-3.89,4.24.14,9.11-.85,18.16-1.55,27.21-.62,7.92-2.13,15.67-5.58,22.91-1.47,3.09-3.3,6-6.3,7.83-4.43,2.76-9.26,1.27-11.38-3.47a16,16,0,0,1-1.35-6c-.28-6.24.65-12.41.94-18.62.32-6.85,1-13.7.14-20.55-1.18-9.41-6.33-14-15.17-13.79-4.23.11-5.87,1.77-5.6,6,.36,5.79,1,11.57.66,17.39-.4,7.85-.82,15.7-1.19,23.55a49.31,49.31,0,0,0,1.93,17.2c2.56,8.19,8.8,12.78,17.37,13s15-3.69,20.13-10.26a50.74,50.74,0,0,0,5.34-9c.57,2.35,1,4.43,1.58,6.43,1.54,5,4,9.49,8.83,12,6.8,3.49,13.65,3.22,20.29-.57,5.81-3.32,9.93-8.36,13.41-13.92,9.5-15.22,14.37-32.16,18-49.54.65-3.1.53-3.12,3.75-2.84.53,0,1.06,0,1.58.09,2.55.33,5.15.35,7.62,1.18,2.64.9,3.56,2.51,2.81,5.15a23.11,23.11,0,0,1-1.41,3.77c-3.59,7.49-7.39,14.88-9.84,22.86-2.2,7.15-3.79,14.38-2.77,22,1.2,8.84,6.53,15.45,14.48,17.32A33.43,33.43,0,0,0,336.81,242c5.91-4.34,9.85-10.27,12.78-16.91C350.48,223.07,350,221.3,348.44,220.47Zm-63.07-68.18c-.08,3.28-.4,6.54-.8,9.79-.12,1-.29,1.35-1.38.82a9.44,9.44,0,0,1-5.22-5.41,18.11,18.11,0,0,1,.47-13c.55-1.34,1.41-2.56,3-2.58s2.37,1.3,2.94,2.62C285.49,147,285.42,149.65,285.37,152.29Z"/><path class="cls-3" d="M380.34,176.85A34.52,34.52,0,0,0,370,187.3a151.2,151.2,0,0,1,1.17-18.08c.09-.7.31-1,1.05-1.06,2.74-.3,5.47-.62,8.19-1,8.5-1.31,16.7-3.58,24.13-8.05,8-4.84,13.62-11.36,14.31-21.21a19.31,19.31,0,0,0-15.29-20.68c-12.63-2.76-23.69.42-32.89,9.52-7.84,7.75-12.23,17.48-15.34,27.85A124.25,124.25,0,0,0,350.8,201c.75,8.91,2.38,17.63,6,25.88,5.12,11.78,13.17,20.17,26.45,22.11,11.1,1.62,21.55-.38,30.18-7.78,13.53-11.6,18-27,14.87-44C423.72,172.82,397,166.47,380.34,176.85Zm.76-43c2.49-3.89,5.49-7.31,10-9.06,5.39-2.12,10.36,1,10.8,6.79a21.42,21.42,0,0,1-4.8,15.38c-6.24,7.85-14.81,11.47-24.7,13.32C374.22,150.84,376,141.76,381.1,133.81Zm22.78,96.72a21.06,21.06,0,0,1-6.18,8.2,12.29,12.29,0,0,1-16.5-.63c-4-3.64-6.05-8.42-7.45-13.49a40.59,40.59,0,0,1-1.59-12c-.07-7.7,1.09-14.27,4.35-20.36,3.76-7,9.95-10.22,17.44-8.94,5.21.89,8.45,4.29,10.6,8.86a35.85,35.85,0,0,1,3.07,13.08C408.21,214,407.55,222.47,403.88,230.53Z"/><path class="cls-3" d="M508.11,190.34c-2.49-9.4-7.38-17.05-16.21-21.69-6.9-3.63-14.38-4.49-22-3.88-13.46,1.08-23.5,7.55-29.26,19.87-5.25,11.26-5.54,23-1.9,34.78,2.94,9.5,8.83,16.58,18.19,20.39a42.71,42.71,0,0,0,21.18,2.7c9.16-1,16.79-4.89,22.64-12,6.39-7.81,9-16.94,9-26.92A49.45,49.45,0,0,0,508.11,190.34Zm-23.22,33a25.2,25.2,0,0,1-3.43,7.65c-3.71,5.35-10.19,6.12-15,1.77-2.86-2.55-4.34-5.92-5.43-9.48a63,63,0,0,1-2.26-18.94c0-7.52.56-15,3-22.19a20.42,20.42,0,0,1,4.24-7.61,10.21,10.21,0,0,1,16,.82c2.8,3.78,3.91,8.22,4.53,12.77C488.09,200,488.13,211.72,484.89,223.34Z"/><path class="cls-3" d="M167.4,135.69c-2.55-.7-5.37.16-7.79.81-5.29,1.44-9.72,3.9-10.87,9.37-.92,4.43-.61,9.84-.36,14.34,3.76,67.08-33.56,68.78-33.56,68.78-13.57,1.69-33.93-6.79-33.93-33.93,0-30.53,17-44.1,17-44.1,10.18-10.18,28.84-18.66,47.32-20.75l64.64-9.79s23.75-3.39,28.83-17c.52-1.37,1.05-3,1.58-4.85L239.08,120a4.7,4.7,0,0,0,4.44,5l4.61.25a13.11,13.11,0,0,0,13.79-12.4l7.88-85.56a5.43,5.43,0,0,0-5.13-5.71c-9.24-.49-20.43,8.13-21.24,17.35-46.13,7.93-113.35,15.4-113.35,15.4C24.92,67.84.37,169.76,38.15,218.22,69,257.82,108,256.13,108,256.13c22.05,0,37-12.27,40.71-15.27,8.48-6.79,15.27-20.36,17-28.84,2.16-10.84,2.68-22.26,3.06-33.28.26-7.62.58-15.24,1-22.85.27-5,.83-9.93,1.12-14.9C171,138.26,170.06,136.42,167.4,135.69Zm9-70.8c3.07-.12,6.15-.25,9.23-.42a1.36,1.36,0,0,1,1.21.63q7.78,12.36,15.6,24.7a2.24,2.24,0,0,0,.56.66.33.33,0,0,1,.1-.06c-.38-8.56-.75-17.12-1.16-25.67-.05-.93.18-1.1,1.53-1a30.55,30.55,0,0,0,6.34-.26c1.28-.19,1.57-.18,1.61.64q.74,17.15,1.51,34.3a6.54,6.54,0,0,1-6.18,6.84l-3.5.2a1.5,1.5,0,0,1-1.35-.7q-7.8-12.42-15.64-24.8c-.08-.13-.17-.25-.32-.47a1.87,1.87,0,0,0-.09,1.1c.36,8.19.71,16.37,1.1,24.56,0,.8-.11,1.07-1,1.08-2.59.05-5.18.19-7.76.34a.74.74,0,0,1-.77-.69q-.87-20.13-1.79-40.26C175.64,65,175.88,64.91,176.4,64.89Zm-25.58,2.66c2.61-.23,5.22-.53,7.82-.84.59-.07.8,0,.87.67q2.15,19.94,4.34,39.87c.07.64-.06.86-.73.92-2.61.25-5.21.53-7.82.86-.65.08-.83-.09-.9-.73-.7-6.64-1.43-13.27-2.15-19.9s-1.43-13.26-2.18-19.89C150,67.84,150.11,67.62,150.82,67.55Zm-64,23.27c.44-.21.62,0,.84.27q6.06,7.27,12.13,14.53,2.92,3.51,5.83,7a3.63,3.63,0,0,0,.41.33c-.75-4.14-1.48-8.12-2.2-12.1-1-5.35-1.94-10.7-2.93-16-.08-.44.08-.61.44-.77,2.66-1.23,5.33-2.45,8-3.73.52-.25.72,0,1,.33l8.09,9.78,9.69,11.71c.09.11.22.21.43.41-.53-3-1-5.85-1.54-8.72-1.14-6.43-2.27-12.86-3.44-19.28a.85.85,0,0,1,.59-1.12c2.78-1.26,5.54-2.57,8.41-3.91.34,2.28.66,4.48,1,6.68q2.59,17.81,5.19,35.61a.87.87,0,0,1-.6,1.12c-2.56,1.15-5.11,2.34-7.63,3.56a.88.88,0,0,1-1.25-.29c-5.91-7-11.83-14-17.94-21.23.4,2.35.75,4.43,1.1,6.51q1.81,10.56,3.64,21.13a.62.62,0,0,1-.41.79c-2.7,1.24-5.39,2.48-8.06,3.76-.55.27-.79,0-1.08-.33L93.65,112.53,78.3,95.36,78,95C81,93.57,83.89,92.21,86.82,90.82Zm-28.89,34.9c-2.33,2.72-4.73,5.39-7.07,8.11-.45.53-.72.66-1.3.13-1.45-1.34-3.43-3-5.06-4.41a.84.84,0,0,1-.08-1.19l11.07-12.59c3.64-4.16,7.29-8.3,10.91-12.47.54-.62.78-.61,1.61.3a26.82,26.82,0,0,0,4.28,3.75c.89.64,1,.87.52,1.44-2.47,2.78-4.89,5.59-7.37,8.36-.48.54-.4.78.11,1.22,7.86,6.87,15.7,13.77,23.58,20.62.71.62.66.93.07,1.58-1.69,1.83-3.33,3.71-4.94,5.62-.49.58-.76.56-1.31.08-7.83-6.9-15.7-13.77-23.52-20.68C58.76,125,58.46,125.1,57.93,125.72Z"/></svg>