<svg xmlns="http://www.w3.org/2000/svg" viewBox="0 0 604.25 357.65"><defs><style>.cls-1{fill:#f1c650;}.cls-2{fill:#fff;}</style></defs><g id="White-Yellow"><path class="cls-1" d="M53.29,315.27a11.21,11.21,0,0,1-3.63,8.59q-3.64,3.38-10.28,3.37H35.92v9.49H32v-27.1L31.5,306h9.92q5.84,0,8.85,2.51A8.39,8.39,0,0,1,53.29,315.27Zm-4,.38a5.4,5.4,0,0,0-2-4.44q-2-1.59-5.91-1.59h-5.5v14h3.46q4.93,0,7.43-2.19A7.26,7.26,0,0,0,49.3,315.65Z"/><path class="cls-1" d="M57.08,325.9a14.52,14.52,0,0,1,3.18-9.61,9.83,9.83,0,0,1,7.83-3.82q4.6,0,6.79,3a12.33,12.33,0,0,1,2.18,7.45,16.63,16.63,0,0,1-.09,2l-16,1.28a7.46,7.46,0,0,0,2.13,5.37,7.85,7.85,0,0,0,5.7,2A14.79,14.79,0,0,0,75,332.45V336q-2,1.23-7.21,1.23a10.36,10.36,0,0,1-7.64-3A11.23,11.23,0,0,1,57.08,325.9ZM67.62,316a5.37,5.37,0,0,0-4.13,2,10.22,10.22,0,0,0-2.33,5.1l12-1.09a6.68,6.68,0,0,0-1.33-4.29A5,5,0,0,0,67.62,316Z"/><path class="cls-1" d="M104.87,336.72l-.48-14.9V318.5L94.9,334.92l-8.25-14.81-1.57,16.61h-3.7l2.42-19.93L81.66,313h5.18L95,328.08l9-15.09,3.84-.47.95,24.2Z"/><path class="cls-1" d="M113.89,325.71a14.57,14.57,0,0,1,3.06-9.47,10.21,10.21,0,0,1,8.37-3.77,10.07,10.07,0,0,1,8.05,3.39,12.11,12.11,0,0,1,2.91,8.14,14.53,14.53,0,0,1-3.06,9.47,10.18,10.18,0,0,1-8.37,3.77,10.07,10.07,0,0,1-8-3.39A12.07,12.07,0,0,1,113.89,325.71Zm18.55-1.33a9.4,9.4,0,0,0-1.85-5.88,6.25,6.25,0,0,0-5.27-2.42,6.77,6.77,0,0,0-5.67,2.44,10.77,10.77,0,0,0-1.92,6.81,9.45,9.45,0,0,0,1.85,5.89,6.25,6.25,0,0,0,5.27,2.42,6.77,6.77,0,0,0,5.67-2.45A10.77,10.77,0,0,0,132.44,324.38Z"/><path class="cls-1" d="M141.6,336.72V313h3.84v9.78H156.6V313l3.84-.47v24.2H156.6V326.14H145.44v10.58Z"/><path class="cls-1" d="M172.35,336.72V316.36h-7.93V313h19.75l-.57,3.37h-7.41v20.36Z"/><path class="cls-1" d="M207.28,336.72V316.36h-7.93V313h19.74l-.57,3.37h-7.4v20.36Z"/><path class="cls-1" d="M222.51,341.75l5.27-7.21-7-21.55h4.18l5.6,18,1.42-2a28.6,28.6,0,0,0,3.68-7.19,21.43,21.43,0,0,0,1.31-6.81,8,8,0,0,0-.15-1.62l3.89-.8a11.46,11.46,0,0,1,.19,2.27q0,7.41-6.21,16.42l-8.78,12.67Z"/><path class="cls-1" d="M245.67,343.6V312.76h.71l2.28,1.33a11.22,11.22,0,0,1,5.79-1.62,10.38,10.38,0,0,1,7.76,3,11.06,11.06,0,0,1,2.91,8.07,12.43,12.43,0,0,1-4.46,9.75,16.46,16.46,0,0,1-11.15,4v6.36ZM254.11,316a8.64,8.64,0,0,0-4.6,1.38v16.18q5.51,0,8.64-2.85a9.21,9.21,0,0,0,3.13-7.21,6.94,6.94,0,0,0-7.17-7.5Z"/><path class="cls-1" d="M290.51,325.52a12.64,12.64,0,0,1-2.8,8.33,9.64,9.64,0,0,1-7.88,3.39,10.27,10.27,0,0,1-7.92-3.22q-3-3.24-3-9.16a26.59,26.59,0,0,1,1.68-10.3,12.05,12.05,0,0,1,5.68-6,22.7,22.7,0,0,1,5.52-1.66A22.83,22.83,0,0,0,287,305.4l1.71-1.38.48,4.42a16.31,16.31,0,0,1-6,1.94,22.42,22.42,0,0,0-5.56,1.48,8.46,8.46,0,0,0-4.12,6.4,13.18,13.18,0,0,1,7.21-2.32,9.81,9.81,0,0,1,7.05,2.63A9.14,9.14,0,0,1,290.51,325.52Zm-3.84.38a6.47,6.47,0,0,0-1.69-4.77,6.28,6.28,0,0,0-4.58-1.59,12.34,12.34,0,0,0-7.45,2.8,12.1,12.1,0,0,0-.19,2c0,3,.66,5.26,2,6.86a6.31,6.31,0,0,0,5.1,2.4,6,6,0,0,0,5.11-2.26A8.75,8.75,0,0,0,286.67,325.9Z"/><path class="cls-1" d="M296.25,336.25V313h3.85v15l-.29,4.08L312.67,313h4.18l-.33,2.38v21.35h-3.85v-14.9l.24-3.46L300.1,337.2Z"/><path class="cls-1" d="M323.21,336.72V313h3.84v9.78H338.2V313l3.85-.47v24.2H338.2V326.14H327.05v10.58Z"/><polygon class="cls-1" points="604.25 178.83 425.43 0 380.93 44.5 515.26 178.82 380.93 313.15 425.43 357.65 604.25 178.83"/><path class="cls-2" d="M126.15,165.83q-9.51,8.28-26.31,8.28-17,0-26.38-8.22t-9.33-25.38V88.62H82.57v51.89a37.26,37.26,0,0,0,.59,6.7,13,13,0,0,0,7.69,9.93,21.38,21.38,0,0,0,9,1.58q9.87,0,13.62-4.41t3.76-13.8V88.35h18.44v52.16Q135.66,157.55,126.15,165.83Z"/><path class="cls-2" d="M196.75,88.35a27.12,27.12,0,0,1,10.16,1.83,23.39,23.39,0,0,1,7.75,5,21.58,21.58,0,0,1,4.93,7.34,23.48,23.48,0,0,1,1.71,9,25.16,25.16,0,0,1-3.12,12.8q-3.1,5.4-10.16,8.23v.23a14.2,14.2,0,0,1,5.64,2.88,15.91,15.91,0,0,1,3.64,4.58,21.3,21.3,0,0,1,2.06,5.81,51.27,51.27,0,0,1,.88,6.35c.08,1.33.16,2.89.23,4.69s.22,3.65.41,5.53a37.55,37.55,0,0,0,.94,5.34,12.55,12.55,0,0,0,1.94,4.29H205.32a32.57,32.57,0,0,1-1.88-9.52c-.24-3.67-.59-7.2-1.06-10.57-.63-4.38-1.95-7.59-4-9.63s-5.36-3-10-3H170v32.77H151.52V88.35Zm-6.58,38q6.35,0,9.51-2.82t3.17-9.16q0-6.1-3.17-8.87t-9.51-2.76H170V126.3Z"/><path class="cls-2" d="M275.8,88.35a52.57,52.57,0,0,1,10.93,1.06,23.64,23.64,0,0,1,8.45,3.47,16,16,0,0,1,5.46,6.4,22.41,22.41,0,0,1,1.94,9.87,18.35,18.35,0,0,1-2.87,10.57,20.94,20.94,0,0,1-8.53,6.93q7.77,2.23,11.58,7.81a23.29,23.29,0,0,1,3.82,13.45,23.06,23.06,0,0,1-2.47,11,21.21,21.21,0,0,1-6.64,7.57,29.3,29.3,0,0,1-9.52,4.35,42.75,42.75,0,0,1-11,1.41H236.33V88.35Zm-2.35,34a13.21,13.21,0,0,0,8.1-2.35c2.12-1.56,3.18-4.11,3.18-7.63a9.72,9.72,0,0,0-1.06-4.82,7.72,7.72,0,0,0-2.82-2.93,11.62,11.62,0,0,0-4.05-1.47,26.43,26.43,0,0,0-4.76-.41H254.77V122.3Zm1.06,35.6a24.83,24.83,0,0,0,5.17-.53,12.71,12.71,0,0,0,4.35-1.76,9,9,0,0,0,3-3.35,11.57,11.57,0,0,0,1.11-5.4q0-6.47-3.63-9.23t-9.64-2.76H254.77v23Z"/><path class="cls-2" d="M318.21,113.2a42.08,42.08,0,0,1,8.1-14,37.13,37.13,0,0,1,13-9.39,45.87,45.87,0,0,1,34.71,0,37.21,37.21,0,0,1,12.93,9.39,42.08,42.08,0,0,1,8.1,14,52.37,52.37,0,0,1,2.82,17.44,50.7,50.7,0,0,1-2.82,17.1,41,41,0,0,1-8.1,13.8A37.17,37.17,0,0,1,374,170.76a46.63,46.63,0,0,1-34.71,0,37.09,37.09,0,0,1-13-9.22,41,41,0,0,1-8.1-13.8,50.7,50.7,0,0,1-2.82-17.1A52.37,52.37,0,0,1,318.21,113.2Zm16.86,27.72a27.72,27.72,0,0,0,3.93,9,20.08,20.08,0,0,0,7,6.4,24.41,24.41,0,0,0,21.15,0,20.2,20.2,0,0,0,7.05-6.4,28,28,0,0,0,3.94-9,42.79,42.79,0,0,0,1.22-10.28A46,46,0,0,0,378.18,120a28.49,28.49,0,0,0-3.94-9.21,20,20,0,0,0-7.05-6.47,24.5,24.5,0,0,0-21.15,0,19.9,19.9,0,0,0-7,6.47,28.25,28.25,0,0,0-3.93,9.21,45.52,45.52,0,0,0-1.24,10.69A42.3,42.3,0,0,0,335.07,140.92Z"/><path class="cls-2" d="M109.41,210.28a41.74,41.74,0,0,1,8.11-14,37.06,37.06,0,0,1,13-9.4,45.87,45.87,0,0,1,34.71,0,37.19,37.19,0,0,1,12.92,9.4,41.74,41.74,0,0,1,8.11,14,52.33,52.33,0,0,1,2.82,17.44,50.6,50.6,0,0,1-2.82,17.09,40.64,40.64,0,0,1-8.11,13.8,37.29,37.29,0,0,1-12.92,9.23,46.76,46.76,0,0,1-34.71,0,37.15,37.15,0,0,1-13-9.23,40.64,40.64,0,0,1-8.11-13.8,50.6,50.6,0,0,1-2.82-17.09A52.33,52.33,0,0,1,109.41,210.28ZM126.27,238a27.82,27.82,0,0,0,3.93,9,20.29,20.29,0,0,0,7.05,6.4,24.41,24.41,0,0,0,21.15,0,20.26,20.26,0,0,0,7-6.4,27.62,27.62,0,0,0,3.94-9,42.86,42.86,0,0,0,1.23-10.28A46.05,46.05,0,0,0,169.38,217a28.11,28.11,0,0,0-3.94-9.22,20,20,0,0,0-7-6.46,24.41,24.41,0,0,0-21.15,0,20,20,0,0,0-7.05,6.46,28.31,28.31,0,0,0-3.93,9.22A46.05,46.05,0,0,0,125,227.72,42.86,42.86,0,0,0,126.27,238Z"/><path class="cls-2" d="M196.1,210.28a41.91,41.91,0,0,1,8.11-14,37.06,37.06,0,0,1,13-9.4,45.87,45.87,0,0,1,34.71,0,37.19,37.19,0,0,1,12.92,9.4,41.74,41.74,0,0,1,8.11,14,52.33,52.33,0,0,1,2.82,17.44,50.6,50.6,0,0,1-2.82,17.09,40.64,40.64,0,0,1-8.11,13.8,37.29,37.29,0,0,1-12.92,9.23,46.76,46.76,0,0,1-34.71,0,37.15,37.15,0,0,1-13-9.23,40.8,40.8,0,0,1-8.11-13.8,50.85,50.85,0,0,1-2.81-17.09A52.58,52.58,0,0,1,196.1,210.28ZM213,238a27.84,27.84,0,0,0,3.94,9,20.21,20.21,0,0,0,7,6.4,24.38,24.38,0,0,0,21.14,0,20.29,20.29,0,0,0,7-6.4,27.82,27.82,0,0,0,3.93-9,42.36,42.36,0,0,0,1.24-10.28A45.52,45.52,0,0,0,256.07,217a28.31,28.31,0,0,0-3.93-9.22,20,20,0,0,0-7-6.46,24.38,24.38,0,0,0-21.14,0,19.9,19.9,0,0,0-7,6.46A28.32,28.32,0,0,0,213,217a46.05,46.05,0,0,0-1.23,10.69A42.86,42.86,0,0,0,213,238Z"/><path class="cls-2" d="M329.6,200.94V185.43h50.5v15.51h0V269.3H361.66V200.94Z"/><path class="cls-2" d="M98.66,231.54q-3.81-5.58-11.57-7.81a21,21,0,0,0,8.52-6.93,18.39,18.39,0,0,0,2.88-10.58,22.5,22.5,0,0,0-1.94-9.86,16,16,0,0,0-5.46-6.4,23.43,23.43,0,0,0-8.46-3.47,51.87,51.87,0,0,0-10.92-1.06H63.93v14.33h4a27.37,27.37,0,0,1,4.76.41,12.2,12.2,0,0,1,4.05,1.47,8,8,0,0,1,2.82,2.94,9.81,9.81,0,0,1,1,4.82c0,3.52-1,6.06-3.17,7.63a13.23,13.23,0,0,1-8.1,2.35H50.68v0H32.23v50H72.88a42.83,42.83,0,0,0,11-1.41,29.37,29.37,0,0,0,9.52-4.34A21.31,21.31,0,0,0,100,256a25.61,25.61,0,0,0-1.35-24.43Zm-15.74,17.8a8.8,8.8,0,0,1-3,3.34,12.92,12.92,0,0,1-4.35,1.77,24.77,24.77,0,0,1-5.17.52H50.68V232H70.77q6,0,9.63,2.76T84,243.93A11.52,11.52,0,0,1,82.92,249.34Z"/><path class="cls-2" d="M0,103.86V88.35H50.44v15.51h0v95.9H32v-95.9Z"/><path class="cls-2" d="M346,232.87a28.23,28.23,0,0,0-3.31-4.1,24.5,24.5,0,0,0-3.84-3.17,31.31,31.31,0,0,0-8.28-3.93q-4.19-1.23-6.52-1.7c-5.25-1.33-9.49-2.43-12.75-3.29-1-.28-1.88-.55-2.78-.83s-1.84-.58-2.66-.87l-.08,0a21.43,21.43,0,0,1-2.11-.85,11.71,11.71,0,0,1-2-1.18c-.12-.08-.26-.17-.37-.26a6.45,6.45,0,0,1-.63-.66,7.91,7.91,0,0,1-.8-1.08,7.69,7.69,0,0,1-.78-3.59,10.36,10.36,0,0,1,.15-1.29c1.19-3.68,6-6.44,11.7-6.44a16.54,16.54,0,0,1,4.12.53V183.57c-.83,0-1.65-.14-2.5-.14A42.92,42.92,0,0,0,301.24,185a31.48,31.48,0,0,0-10.11,4.7,25,25,0,0,0-7.22,7.93,22,22,0,0,0-2.76,11.22,20.45,20.45,0,0,0,2.18,9.8,20.66,20.66,0,0,0,5.69,6.76h0l0,0a31.46,31.46,0,0,0,8,4.4,78.75,78.75,0,0,0,9.17,2.88c3,.86,6.06,1.65,9,2.35a57.82,57.82,0,0,1,8,2.47,17.38,17.38,0,0,1,5.67,3.5,7.38,7.38,0,0,1,2.16,5.51,8.13,8.13,0,0,1-1.64,5.22,11.6,11.6,0,0,1-4.12,3.23,18.07,18.07,0,0,1-5.28,1.59,36,36,0,0,1-5.29.41,28.23,28.23,0,0,1-7-.88,17.59,17.59,0,0,1-5.94-2.7,13.39,13.39,0,0,1-4-4.72,15.38,15.38,0,0,1-1.53-7.17h0v0H278.33a27.69,27.69,0,0,0,2.82,13.4,26.51,26.51,0,0,0,7.93,9.28h0l0,0a33.94,33.94,0,0,0,11.51,5.35,53.28,53.28,0,0,0,13.46,1.7,51.36,51.36,0,0,0,15.09-2,31.81,31.81,0,0,0,10.93-5.58,23.2,23.2,0,0,0,6.63-8.51A25.59,25.59,0,0,0,349,244.44Q349,237.39,346,232.87Z"/></g></svg>